<svg width="11" height="11" viewBox="0 0 11 11" fill="none" xmlns="http://www.w3.org/2000/svg">
<path d="M9.42457 5.82929C9.42457 3.51527 7.54866 1.63939 5.23466 1.63939C2.92064 1.63939 1.04476 3.51527 1.04476 5.82929C1.04476 8.14329 2.92064 10.0192 5.23466 10.0192C7.54866 10.0192 9.42457 8.14329 9.42457 5.82929Z" stroke="#0F0F0F" stroke-width="0.628485"/>
<path d="M5.33695 7.92428V5.82933C5.33695 5.63181 5.33695 5.53306 5.27557 5.47168C5.21423 5.41034 5.11547 5.41034 4.91796 5.41034" fill="#0F0F0F"/>
<path d="M5.33695 7.92428V5.82933C5.33695 5.63181 5.33695 5.53306 5.27557 5.47168C5.21423 5.41034 5.11547 5.41034 4.91796 5.41034" stroke="#0F0F0F" stroke-width="0.628485" stroke-linecap="round" stroke-linejoin="round"/>
<path d="M5.23156 4.15339H5.23676H5.23156Z" fill="#0F0F0F"/>
<path d="M5.23156 4.15339H5.23676" stroke="#0F0F0F" stroke-width="0.83798" stroke-linecap="round" stroke-linejoin="round"/>
</svg>
